<?xml version="1.0" encoding="UTF-8"?><svg xmlns="http://www.w3.org/2000/svg" xmlns:xlink="http://www.w3.org/1999/xlink" contentScriptType="text/ecmascript" width="375pt" zoomAndPan="magnify" contentStyleType="text/css" viewBox="0 0 375 374.999991" height="374.999991pt" preserveAspectRatio="xMidYMid meet" version="1.2"><defs><g/></defs><g xml:id="surface1" id="surface1"><path style=" stroke:none;fill-rule:nonzero;fill:rgb(100%,100%,100%);fill-opacity:1;" d="M 139.589844 123.722656 L 117.980469 123.722656 L 117.980469 149.972656 L 120.136719 149.972656 L 120.136719 125.878906 L 144.230469 125.878906 L 144.230469 123.722656 Z M 139.589844 123.722656 "/><path style=" stroke:none;fill-rule:nonzero;fill:rgb(100%,100%,100%);fill-opacity:1;" d="M 235.402344 251.273438 L 257.015625 251.273438 L 257.015625 225.023438 L 254.855469 225.023438 L 254.855469 249.113281 L 230.765625 249.113281 L 230.765625 251.273438 Z M 235.402344 251.273438 "/><path style=" stroke:none;fill-rule:nonzero;fill:rgb(100%,100%,100%);fill-opacity:1;" d="M 257.015625 145.332031 L 257.015625 123.722656 L 230.765625 123.722656 L 230.765625 125.878906 L 254.855469 125.878906 L 254.855469 149.972656 L 257.015625 149.972656 Z M 257.015625 145.332031 "/><path style=" stroke:none;fill-rule:nonzero;fill:rgb(100%,100%,100%);fill-opacity:1;" d="M 117.980469 229.660156 L 117.980469 251.273438 L 144.230469 251.273438 L 144.230469 249.113281 L 120.136719 249.113281 L 120.136719 225.023438 L 117.980469 225.023438 Z M 117.980469 229.660156 "/><path style=" stroke:none;fill-rule:nonzero;fill:rgb(100%,0%,0%);fill-opacity:1;" d="M 237.785156 137.414062 C 237.414062 137.414062 237.050781 137.449219 236.6875 137.519531 C 236.324219 137.59375 235.972656 137.699219 235.632812 137.839844 C 235.292969 137.980469 234.96875 138.15625 234.660156 138.359375 C 234.351562 138.566406 234.070312 138.796875 233.808594 139.058594 C 233.546875 139.320312 233.3125 139.605469 233.109375 139.914062 C 232.902344 140.21875 232.730469 140.542969 232.589844 140.886719 C 232.445312 141.226562 232.339844 141.578125 232.269531 141.941406 C 232.195312 142.300781 232.160156 142.667969 232.160156 143.039062 C 232.160156 143.40625 232.195312 143.773438 232.269531 144.136719 C 232.339844 144.496094 232.445312 144.847656 232.589844 145.191406 C 232.730469 145.53125 232.902344 145.855469 233.109375 146.164062 C 233.3125 146.46875 233.546875 146.753906 233.808594 147.015625 C 234.070312 147.277344 234.351562 147.507812 234.660156 147.714844 C 234.96875 147.917969 235.292969 148.09375 235.632812 148.234375 C 235.972656 148.375 236.324219 148.480469 236.6875 148.554688 C 237.050781 148.625 237.414062 148.664062 237.785156 148.664062 C 238.15625 148.664062 238.519531 148.625 238.882812 148.554688 C 239.246094 148.480469 239.597656 148.375 239.9375 148.234375 C 240.277344 148.09375 240.601562 147.917969 240.910156 147.714844 C 241.21875 147.507812 241.5 147.277344 241.761719 147.015625 C 242.023438 146.753906 242.257812 146.46875 242.460938 146.164062 C 242.667969 145.855469 242.839844 145.53125 242.980469 145.191406 C 243.125 144.847656 243.230469 144.496094 243.300781 144.136719 C 243.375 143.773438 243.410156 143.40625 243.410156 143.039062 C 243.410156 142.667969 243.375 142.300781 243.300781 141.941406 C 243.230469 141.578125 243.125 141.226562 242.980469 140.886719 C 242.839844 140.542969 242.667969 140.21875 242.460938 139.914062 C 242.257812 139.605469 242.023438 139.320312 241.761719 139.058594 C 241.5 138.796875 241.21875 138.566406 240.910156 138.359375 C 240.601562 138.15625 240.277344 137.980469 239.9375 137.839844 C 239.597656 137.699219 239.246094 137.59375 238.882812 137.519531 C 238.519531 137.449219 238.15625 137.414062 237.785156 137.414062 Z M 237.785156 137.414062 "/><g style="fill:rgb(100%,100%,100%);fill-opacity:1;"><g transform="translate(131.189235, 199.368986)"><path style="stroke:none;" d="M 8.40625 -2.890625 C 9.09375 -2.890625 9.660156 -2.992188 10.109375 -3.203125 C 10.554688 -3.410156 10.898438 -3.691406 11.140625 -4.046875 C 11.390625 -4.398438 11.554688 -4.804688 11.640625 -5.265625 C 11.734375 -5.734375 11.78125 -6.21875 11.78125 -6.71875 L 11.78125 -7.203125 L 15.390625 -7.203125 L 15.390625 -6.71875 C 15.390625 -4.4375 14.789062 -2.679688 13.59375 -1.453125 C 12.40625 -0.234375 10.675781 0.375 8.40625 0.375 C 6.21875 0.375 4.488281 -0.285156 3.21875 -1.609375 C 1.945312 -2.929688 1.3125 -4.867188 1.3125 -7.421875 L 1.3125 -11.671875 C 1.3125 -12.890625 1.472656 -13.984375 1.796875 -14.953125 C 2.128906 -15.929688 2.601562 -16.753906 3.21875 -17.421875 C 3.832031 -18.085938 4.578125 -18.597656 5.453125 -18.953125 C 6.328125 -19.304688 7.3125 -19.484375 8.40625 -19.484375 C 9.53125 -19.484375 10.53125 -19.316406 11.40625 -18.984375 C 12.28125 -18.660156 13.007812 -18.1875 13.59375 -17.5625 C 14.1875 -16.945312 14.632812 -16.203125 14.9375 -15.328125 C 15.238281 -14.453125 15.390625 -13.472656 15.390625 -12.390625 L 15.390625 -11.890625 L 11.78125 -11.890625 L 11.78125 -12.390625 C 11.78125 -12.835938 11.722656 -13.289062 11.609375 -13.75 C 11.503906 -14.207031 11.320312 -14.613281 11.0625 -14.96875 C 10.8125 -15.332031 10.46875 -15.628906 10.03125 -15.859375 C 9.601562 -16.085938 9.0625 -16.203125 8.40625 -16.203125 C 7.800781 -16.203125 7.28125 -16.085938 6.84375 -15.859375 C 6.40625 -15.628906 6.039062 -15.316406 5.75 -14.921875 C 5.457031 -14.535156 5.242188 -14.082031 5.109375 -13.5625 C 4.972656 -13.050781 4.90625 -12.515625 4.90625 -11.953125 L 4.90625 -7.140625 C 4.90625 -6.523438 4.96875 -5.957031 5.09375 -5.4375 C 5.226562 -4.925781 5.429688 -4.476562 5.703125 -4.09375 C 5.972656 -3.707031 6.332031 -3.410156 6.78125 -3.203125 C 7.226562 -2.992188 7.769531 -2.890625 8.40625 -2.890625 Z M 8.40625 -2.890625 "/></g></g><g style="fill:rgb(100%,100%,100%);fill-opacity:1;"><g transform="translate(147.880266, 199.368986)"><path style="stroke:none;" d="M 11.296875 -13.53125 L 14.734375 -13.53125 L 14.734375 3.328125 C 14.734375 3.941406 14.535156 4.445312 14.140625 4.84375 C 13.753906 5.25 13.25 5.453125 12.625 5.453125 L 4.578125 5.453125 L 4.578125 2.1875 L 10.5625 2.1875 C 11.050781 2.1875 11.296875 1.910156 11.296875 1.359375 L 11.296875 -1.96875 L 10.796875 -1.96875 C 10.203125 -0.40625 8.910156 0.375 6.921875 0.375 C 6.253906 0.375 5.628906 0.265625 5.046875 0.046875 C 4.460938 -0.160156 3.953125 -0.492188 3.515625 -0.953125 C 3.078125 -1.410156 2.734375 -1.976562 2.484375 -2.65625 C 2.242188 -3.34375 2.125 -4.148438 2.125 -5.078125 L 2.125 -13.53125 L 5.5625 -13.53125 L 5.5625 -5.78125 C 5.5625 -4.820312 5.785156 -4.070312 6.234375 -3.53125 C 6.691406 -3 7.378906 -2.734375 8.296875 -2.734375 C 9.328125 -2.734375 10.082031 -3.0625 10.5625 -3.71875 C 11.050781 -4.382812 11.296875 -5.289062 11.296875 -6.4375 Z M 11.296875 -13.53125 "/></g></g><g style="fill:rgb(100%,100%,100%);fill-opacity:1;"><g transform="translate(164.571296, 199.368986)"><path style="stroke:none;" d="M 5 0 L 1.5625 0 L 1.5625 -19.09375 L 5 -19.09375 L 5 -11.5625 L 5.484375 -11.5625 C 5.847656 -12.3125 6.375 -12.890625 7.0625 -13.296875 C 7.757812 -13.703125 8.644531 -13.90625 9.71875 -13.90625 C 10.507812 -13.90625 11.265625 -13.75 11.984375 -13.4375 C 12.703125 -13.132812 13.328125 -12.6875 13.859375 -12.09375 C 14.398438 -11.507812 14.828125 -10.785156 15.140625 -9.921875 C 15.460938 -9.066406 15.625 -8.097656 15.625 -7.015625 L 15.625 -6.515625 C 15.625 -5.410156 15.46875 -4.429688 15.15625 -3.578125 C 14.851562 -2.722656 14.4375 -2 13.90625 -1.40625 C 13.382812 -0.8125 12.765625 -0.363281 12.046875 -0.0625 C 11.328125 0.226562 10.550781 0.375 9.71875 0.375 C 9.09375 0.375 8.550781 0.3125 8.09375 0.1875 C 7.644531 0.0625 7.25 -0.109375 6.90625 -0.328125 C 6.570312 -0.546875 6.289062 -0.796875 6.0625 -1.078125 C 5.84375 -1.359375 5.648438 -1.65625 5.484375 -1.96875 L 5 -1.96875 Z M 8.59375 -2.890625 C 9.664062 -2.890625 10.53125 -3.222656 11.1875 -3.890625 C 11.851562 -4.554688 12.1875 -5.460938 12.1875 -6.609375 L 12.1875 -6.921875 C 12.1875 -8.066406 11.851562 -8.972656 11.1875 -9.640625 C 10.53125 -10.304688 9.664062 -10.640625 8.59375 -10.640625 C 7.519531 -10.640625 6.648438 -10.296875 5.984375 -9.609375 C 5.328125 -8.929688 5 -8.035156 5 -6.921875 L 5 -6.609375 C 5 -5.492188 5.328125 -4.59375 5.984375 -3.90625 C 6.648438 -3.226562 7.519531 -2.890625 8.59375 -2.890625 Z M 8.59375 -2.890625 "/></g></g><g style="fill:rgb(100%,100%,100%);fill-opacity:1;"><g transform="translate(181.262327, 199.368986)"><path style="stroke:none;" d="M 5.15625 -5.640625 C 5.175781 -5.242188 5.269531 -4.875 5.4375 -4.53125 C 5.613281 -4.195312 5.851562 -3.90625 6.15625 -3.65625 C 6.457031 -3.414062 6.800781 -3.226562 7.1875 -3.09375 C 7.582031 -2.957031 8 -2.890625 8.4375 -2.890625 C 9.289062 -2.890625 9.941406 -3.039062 10.390625 -3.34375 C 10.847656 -3.644531 11.175781 -4.003906 11.375 -4.421875 L 14.328125 -2.78125 C 14.160156 -2.4375 13.929688 -2.078125 13.640625 -1.703125 C 13.347656 -1.328125 12.96875 -0.984375 12.5 -0.671875 C 12.039062 -0.367188 11.476562 -0.117188 10.8125 0.078125 C 10.15625 0.273438 9.378906 0.375 8.484375 0.375 C 7.460938 0.375 6.535156 0.210938 5.703125 -0.109375 C 4.867188 -0.429688 4.144531 -0.898438 3.53125 -1.515625 C 2.925781 -2.140625 2.453125 -2.894531 2.109375 -3.78125 C 1.773438 -4.675781 1.609375 -5.691406 1.609375 -6.828125 L 1.609375 -6.984375 C 1.609375 -8.015625 1.785156 -8.957031 2.140625 -9.8125 C 2.492188 -10.675781 2.976562 -11.40625 3.59375 -12 C 4.21875 -12.601562 4.941406 -13.070312 5.765625 -13.40625 C 6.597656 -13.738281 7.488281 -13.90625 8.4375 -13.90625 C 9.59375 -13.90625 10.585938 -13.703125 11.421875 -13.296875 C 12.265625 -12.890625 12.957031 -12.367188 13.5 -11.734375 C 14.050781 -11.109375 14.453125 -10.414062 14.703125 -9.65625 C 14.960938 -8.90625 15.09375 -8.175781 15.09375 -7.46875 L 15.09375 -5.640625 Z M 8.40625 -10.796875 C 7.53125 -10.796875 6.816406 -10.570312 6.265625 -10.125 C 5.722656 -9.6875 5.367188 -9.175781 5.203125 -8.59375 L 11.59375 -8.59375 C 11.488281 -9.226562 11.148438 -9.753906 10.578125 -10.171875 C 10.003906 -10.585938 9.28125 -10.796875 8.40625 -10.796875 Z M 8.40625 -10.796875 "/></g></g><g style="fill:rgb(100%,100%,100%);fill-opacity:1;"><g transform="translate(197.953357, 199.368986)"><path style="stroke:none;" d="M 1.46875 -13.53125 L 7.203125 -13.53125 L 7.203125 -11.5625 L 7.6875 -11.5625 C 7.945312 -12.3125 8.378906 -12.890625 8.984375 -13.296875 C 9.597656 -13.703125 10.332031 -13.90625 11.1875 -13.90625 C 12.53125 -13.90625 13.609375 -13.484375 14.421875 -12.640625 C 15.242188 -11.796875 15.65625 -10.507812 15.65625 -8.78125 L 15.65625 -8.1875 L 12.109375 -7.859375 L 12.109375 -8.234375 C 12.109375 -8.984375 11.914062 -9.578125 11.53125 -10.015625 C 11.15625 -10.460938 10.585938 -10.6875 9.828125 -10.6875 C 9.054688 -10.6875 8.453125 -10.421875 8.015625 -9.890625 C 7.578125 -9.367188 7.359375 -8.617188 7.359375 -7.640625 L 7.359375 -3.28125 L 10.46875 -3.28125 L 10.46875 0 L 1.140625 0 L 1.140625 -3.28125 L 3.921875 -3.28125 L 3.921875 -10.25 L 1.46875 -10.25 Z M 1.46875 -13.53125 "/></g></g><g style="fill:rgb(100%,100%,100%);fill-opacity:1;"><g transform="translate(131.189235, 229.181123)"><path style="stroke:none;" d="M 8.40625 -2.890625 C 9.09375 -2.890625 9.660156 -2.992188 10.109375 -3.203125 C 10.554688 -3.410156 10.898438 -3.691406 11.140625 -4.046875 C 11.390625 -4.398438 11.554688 -4.804688 11.640625 -5.265625 C 11.734375 -5.734375 11.78125 -6.21875 11.78125 -6.71875 L 11.78125 -7.203125 L 15.390625 -7.203125 L 15.390625 -6.71875 C 15.390625 -4.4375 14.789062 -2.679688 13.59375 -1.453125 C 12.40625 -0.234375 10.675781 0.375 8.40625 0.375 C 6.21875 0.375 4.488281 -0.285156 3.21875 -1.609375 C 1.945312 -2.929688 1.3125 -4.867188 1.3125 -7.421875 L 1.3125 -11.671875 C 1.3125 -12.890625 1.472656 -13.984375 1.796875 -14.953125 C 2.128906 -15.929688 2.601562 -16.753906 3.21875 -17.421875 C 3.832031 -18.085938 4.578125 -18.597656 5.453125 -18.953125 C 6.328125 -19.304688 7.3125 -19.484375 8.40625 -19.484375 C 9.53125 -19.484375 10.53125 -19.316406 11.40625 -18.984375 C 12.28125 -18.660156 13.007812 -18.1875 13.59375 -17.5625 C 14.1875 -16.945312 14.632812 -16.203125 14.9375 -15.328125 C 15.238281 -14.453125 15.390625 -13.472656 15.390625 -12.390625 L 15.390625 -11.890625 L 11.78125 -11.890625 L 11.78125 -12.390625 C 11.78125 -12.835938 11.722656 -13.289062 11.609375 -13.75 C 11.503906 -14.207031 11.320312 -14.613281 11.0625 -14.96875 C 10.8125 -15.332031 10.46875 -15.628906 10.03125 -15.859375 C 9.601562 -16.085938 9.0625 -16.203125 8.40625 -16.203125 C 7.800781 -16.203125 7.28125 -16.085938 6.84375 -15.859375 C 6.40625 -15.628906 6.039062 -15.316406 5.75 -14.921875 C 5.457031 -14.535156 5.242188 -14.082031 5.109375 -13.5625 C 4.972656 -13.050781 4.90625 -12.515625 4.90625 -11.953125 L 4.90625 -7.140625 C 4.90625 -6.523438 4.96875 -5.957031 5.09375 -5.4375 C 5.226562 -4.925781 5.429688 -4.476562 5.703125 -4.09375 C 5.972656 -3.707031 6.332031 -3.410156 6.78125 -3.203125 C 7.226562 -2.992188 7.769531 -2.890625 8.40625 -2.890625 Z M 8.40625 -2.890625 "/></g></g><g style="fill:rgb(100%,100%,100%);fill-opacity:1;"><g transform="translate(147.880266, 229.181123)"><path style="stroke:none;" d="M 2.375 -3.28125 L 6.953125 -3.28125 L 6.953125 -10.25 L 2.703125 -10.25 L 2.703125 -13.53125 L 10.390625 -13.53125 L 10.390625 -3.28125 L 14.328125 -3.28125 L 14.328125 0 L 2.375 0 Z M 11.234375 -17.546875 C 11.234375 -17.179688 11.164062 -16.835938 11.03125 -16.515625 C 10.894531 -16.203125 10.707031 -15.929688 10.46875 -15.703125 C 10.238281 -15.472656 9.960938 -15.289062 9.640625 -15.15625 C 9.328125 -15.019531 8.992188 -14.953125 8.640625 -14.953125 C 8.285156 -14.953125 7.953125 -15.019531 7.640625 -15.15625 C 7.328125 -15.289062 7.050781 -15.472656 6.8125 -15.703125 C 6.582031 -15.929688 6.398438 -16.203125 6.265625 -16.515625 C 6.128906 -16.835938 6.0625 -17.179688 6.0625 -17.546875 C 6.0625 -17.910156 6.128906 -18.25 6.265625 -18.5625 C 6.398438 -18.882812 6.582031 -19.15625 6.8125 -19.375 C 7.050781 -19.601562 7.328125 -19.785156 7.640625 -19.921875 C 7.953125 -20.066406 8.285156 -20.140625 8.640625 -20.140625 C 8.992188 -20.140625 9.328125 -20.066406 9.640625 -19.921875 C 9.960938 -19.785156 10.238281 -19.601562 10.46875 -19.375 C 10.707031 -19.15625 10.894531 -18.882812 11.03125 -18.5625 C 11.164062 -18.25 11.234375 -17.910156 11.234375 -17.546875 Z M 11.234375 -17.546875 "/></g></g><g style="fill:rgb(100%,100%,100%);fill-opacity:1;"><g transform="translate(164.571296, 229.181123)"><path style="stroke:none;" d="M 5.5625 0 L 2.125 0 L 2.125 -13.53125 L 5.5625 -13.53125 L 5.5625 -11.515625 L 6.0625 -11.515625 C 6.363281 -12.273438 6.859375 -12.863281 7.546875 -13.28125 C 8.242188 -13.695312 9.054688 -13.90625 9.984375 -13.90625 C 10.640625 -13.90625 11.253906 -13.800781 11.828125 -13.59375 C 12.398438 -13.382812 12.90625 -13.0625 13.34375 -12.625 C 13.78125 -12.1875 14.117188 -11.628906 14.359375 -10.953125 C 14.609375 -10.285156 14.734375 -9.488281 14.734375 -8.5625 L 14.734375 0 L 11.296875 0 L 11.296875 -7.6875 C 11.296875 -8.65625 11.0625 -9.414062 10.59375 -9.96875 C 10.132812 -10.519531 9.46875 -10.796875 8.59375 -10.796875 C 7.570312 -10.796875 6.8125 -10.453125 6.3125 -9.765625 C 5.8125 -9.085938 5.5625 -8.175781 5.5625 -7.03125 Z M 5.5625 0 "/></g></g><g style="fill:rgb(100%,100%,100%);fill-opacity:1;"><g transform="translate(181.262327, 229.181123)"><path style="stroke:none;" d="M 5.15625 -5.640625 C 5.175781 -5.242188 5.269531 -4.875 5.4375 -4.53125 C 5.613281 -4.195312 5.851562 -3.90625 6.15625 -3.65625 C 6.457031 -3.414062 6.800781 -3.226562 7.1875 -3.09375 C 7.582031 -2.957031 8 -2.890625 8.4375 -2.890625 C 9.289062 -2.890625 9.941406 -3.039062 10.390625 -3.34375 C 10.847656 -3.644531 11.175781 -4.003906 11.375 -4.421875 L 14.328125 -2.78125 C 14.160156 -2.4375 13.929688 -2.078125 13.640625 -1.703125 C 13.347656 -1.328125 12.96875 -0.984375 12.5 -0.671875 C 12.039062 -0.367188 11.476562 -0.117188 10.8125 0.078125 C 10.15625 0.273438 9.378906 0.375 8.484375 0.375 C 7.460938 0.375 6.535156 0.210938 5.703125 -0.109375 C 4.867188 -0.429688 4.144531 -0.898438 3.53125 -1.515625 C 2.925781 -2.140625 2.453125 -2.894531 2.109375 -3.78125 C 1.773438 -4.675781 1.609375 -5.691406 1.609375 -6.828125 L 1.609375 -6.984375 C 1.609375 -8.015625 1.785156 -8.957031 2.140625 -9.8125 C 2.492188 -10.675781 2.976562 -11.40625 3.59375 -12 C 4.21875 -12.601562 4.941406 -13.070312 5.765625 -13.40625 C 6.597656 -13.738281 7.488281 -13.90625 8.4375 -13.90625 C 9.59375 -13.90625 10.585938 -13.703125 11.421875 -13.296875 C 12.265625 -12.890625 12.957031 -12.367188 13.5 -11.734375 C 14.050781 -11.109375 14.453125 -10.414062 14.703125 -9.65625 C 14.960938 -8.90625 15.09375 -8.175781 15.09375 -7.46875 L 15.09375 -5.640625 Z M 8.40625 -10.796875 C 7.53125 -10.796875 6.816406 -10.570312 6.265625 -10.125 C 5.722656 -9.6875 5.367188 -9.175781 5.203125 -8.59375 L 11.59375 -8.59375 C 11.488281 -9.226562 11.148438 -9.753906 10.578125 -10.171875 C 10.003906 -10.585938 9.28125 -10.796875 8.40625 -10.796875 Z M 8.40625 -10.796875 "/></g></g><g style="fill:rgb(100%,100%,100%);fill-opacity:1;"><g transform="translate(197.953357, 229.181123)"><path style="stroke:none;" d="M 15.71875 0 L 12.28125 0 L 12.28125 -9.5 C 12.28125 -9.875 12.179688 -10.15625 11.984375 -10.34375 C 11.796875 -10.539062 11.546875 -10.640625 11.234375 -10.640625 C 10.867188 -10.640625 10.582031 -10.53125 10.375 -10.3125 C 10.164062 -10.09375 10.0625 -9.765625 10.0625 -9.328125 L 10.0625 0 L 6.625 0 L 6.625 -9.5 C 6.625 -9.875 6.519531 -10.15625 6.3125 -10.34375 C 6.101562 -10.539062 5.851562 -10.640625 5.5625 -10.640625 C 5.238281 -10.640625 4.96875 -10.53125 4.75 -10.3125 C 4.53125 -10.09375 4.421875 -9.765625 4.421875 -9.328125 L 4.421875 0 L 0.984375 0 L 0.984375 -13.53125 L 4.421875 -13.53125 L 4.421875 -12.21875 L 4.90625 -12.21875 C 5.019531 -12.707031 5.269531 -13.109375 5.65625 -13.421875 C 6.050781 -13.742188 6.566406 -13.90625 7.203125 -13.90625 C 7.804688 -13.90625 8.316406 -13.742188 8.734375 -13.421875 C 9.148438 -13.109375 9.429688 -12.707031 9.578125 -12.21875 L 10.0625 -12.21875 C 10.207031 -12.707031 10.507812 -13.109375 10.96875 -13.421875 C 11.4375 -13.742188 12.019531 -13.90625 12.71875 -13.90625 C 13.625 -13.90625 14.347656 -13.597656 14.890625 -12.984375 C 15.441406 -12.378906 15.71875 -11.539062 15.71875 -10.46875 Z M 15.71875 0 "/></g></g><g style="fill:rgb(100%,100%,100%);fill-opacity:1;"><g transform="translate(214.644388, 229.181123)"><path style="stroke:none;" d="M 10.890625 -1.96875 C 10.523438 -1.113281 10.015625 -0.507812 9.359375 -0.15625 C 8.703125 0.195312 7.9375 0.375 7.0625 0.375 C 6.25 0.375 5.484375 0.222656 4.765625 -0.078125 C 4.046875 -0.390625 3.410156 -0.84375 2.859375 -1.4375 C 2.316406 -2.039062 1.882812 -2.769531 1.5625 -3.625 C 1.25 -4.476562 1.09375 -5.453125 1.09375 -6.546875 L 1.09375 -6.984375 C 1.09375 -8.054688 1.242188 -9.019531 1.546875 -9.875 C 1.859375 -10.726562 2.273438 -11.453125 2.796875 -12.046875 C 3.328125 -12.648438 3.941406 -13.109375 4.640625 -13.421875 C 5.347656 -13.742188 6.101562 -13.90625 6.90625 -13.90625 C 7.863281 -13.90625 8.640625 -13.742188 9.234375 -13.421875 C 9.828125 -13.097656 10.296875 -12.585938 10.640625 -11.890625 L 11.125 -11.890625 L 11.125 -13.53125 L 14.5625 -13.53125 L 14.5625 -4.09375 C 14.5625 -3.550781 14.8125 -3.28125 15.3125 -3.28125 L 15.828125 -3.28125 L 15.828125 0 L 13.484375 0 C 12.859375 0 12.347656 -0.179688 11.953125 -0.546875 C 11.566406 -0.910156 11.375 -1.382812 11.375 -1.96875 Z M 7.828125 -2.890625 C 8.828125 -2.890625 9.625 -3.222656 10.21875 -3.890625 C 10.820312 -4.554688 11.125 -5.460938 11.125 -6.609375 L 11.125 -6.921875 C 11.125 -8.066406 10.820312 -8.972656 10.21875 -9.640625 C 9.625 -10.304688 8.828125 -10.640625 7.828125 -10.640625 C 6.828125 -10.640625 6.023438 -10.304688 5.421875 -9.640625 C 4.828125 -8.972656 4.53125 -8.066406 4.53125 -6.921875 L 4.53125 -6.609375 C 4.53125 -5.460938 4.828125 -4.554688 5.421875 -3.890625 C 6.023438 -3.222656 6.828125 -2.890625 7.828125 -2.890625 Z M 7.828125 -2.890625 "/></g></g></g></svg>